<?xml version="1.0" standalone="no"?>
<!DOCTYPE svg PUBLIC "-//W3C//DTD SVG 20010904//EN"
 "http://www.w3.org/TR/2001/REC-SVG-20010904/DTD/svg10.dtd">
<svg version="1.0" xmlns="http://www.w3.org/2000/svg"
 width="700.000000pt" height="700.000000pt" viewBox="0 0 700.000000 700.000000"
 preserveAspectRatio="xMidYMid meet">
<metadata>
Created by potrace 1.11, written by Peter Selinger 2001-2013
</metadata>
<g transform="translate(0.000000,700.000000) scale(0.100000,-0.100000)"
fill="#000000" stroke="none">
<path d="M0 6045 l0 -955 955 0 955 0 0 955 0 955 -955 0 -955 0 0 -955z"/>
<path d="M2547 6993 c-3 -7 -2 -1876 2 -1896 0 -4 429 -6 953 -5 l952 3 1 953
0 952 -952 0 c-523 0 -954 -3 -956 -7z"/>
<path d="M5090 6045 l0 -955 955 0 955 0 0 955 0 955 -955 0 -955 0 0 -955z"/>
<path d="M2 3500 l3 -955 950 0 950 0 3 953 c1 523 -1 953 -5 953 -5 1 -434 2
-956 3 l-947 1 2 -955z"/>
<path d="M2559 4452 c-12 -2 -14 -129 -13 -945 1 -518 2 -947 3 -952 1 -7 324
-10 951 -10 943 0 950 0 951 20 3 52 4 1862 1 1875 -3 13 -115 15 -941 15
-515 0 -944 -1 -952 -3z"/>
<path d="M5094 4451 c-2 -2 -4 -431 -4 -952 0 -749 3 -948 13 -951 6 -2 435
-4 952 -4 l940 1 0 955 0 955 -948 0 c-522 0 -951 -2 -953 -4z"/>
<path d="M0 955 l0 -955 955 0 955 0 0 955 0 955 -955 0 -955 0 0 -955z"/>
<path d="M2547 1903 c-2 -5 -3 -433 -3 -953 l1 -945 955 0 954 0 1 940 c1 517
-1 946 -3 953 -3 9 -203 12 -952 12 -522 0 -951 -3 -953 -7z m463 -1578 c0 -7
-30 -13 -34 -7 -3 4 4 9 15 9 10 1 19 0 19 -2z m37 -1 c-3 -3 -12 -4 -19 -1
-8 3 -5 6 6 6 11 1 17 -2 13 -5z m123 1 c0 -7 -30 -13 -34 -7 -3 4 4 9 15 9
10 1 19 0 19 -2z m80 0 c0 -7 -30 -13 -34 -7 -3 4 4 9 15 9 10 1 19 0 19 -2z
m80 0 c0 -7 -30 -13 -34 -7 -3 4 4 9 15 9 10 1 19 0 19 -2z m40 -1 c0 -8 -19
-13 -24 -6 -3 5 1 9 9 9 8 0 15 -2 15 -3z m70 0 c0 -8 -19 -13 -24 -6 -3 5 1
9 9 9 8 0 15 -2 15 -3z m50 1 c0 -7 -30 -13 -34 -7 -3 4 4 9 15 9 10 1 19 0
19 -2z m80 0 c0 -7 -30 -13 -34 -7 -3 4 4 9 15 9 10 1 19 0 19 -2z m40 -1 c0
-8 -19 -13 -24 -6 -3 5 1 9 9 9 8 0 15 -2 15 -3z m70 0 c0 -8 -19 -13 -24 -6
-3 5 1 9 9 9 8 0 15 -2 15 -3z m50 1 c0 -7 -30 -13 -34 -7 -3 4 4 9 15 9 10 1
19 0 19 -2z m190 -1 c0 -8 -19 -13 -24 -6 -3 5 1 9 9 9 8 0 15 -2 15 -3z m50
1 c0 -7 -30 -13 -34 -7 -3 4 4 9 15 9 10 1 19 0 19 -2z m80 0 c0 -7 -30 -13
-34 -7 -3 4 4 9 15 9 10 1 19 0 19 -2z"/>
<path d="M5090 955 l0 -955 955 0 955 0 0 955 0 955 -955 0 -955 0 0 -955z"/>
</g>
</svg>
