<?xml version="1.0" standalone="no"?>
<!DOCTYPE svg PUBLIC "-//W3C//DTD SVG 20010904//EN"
 "http://www.w3.org/TR/2001/REC-SVG-20010904/DTD/svg10.dtd">
<svg version="1.0" xmlns="http://www.w3.org/2000/svg"
 width="260.000000pt" height="260.000000pt" viewBox="0 0 260.000000 260.000000"
 preserveAspectRatio="xMidYMid meet">
<metadata>
Created by potrace 1.11, written by Peter Selinger 2001-2013
</metadata>
<g transform="translate(0.000000,260.000000) scale(0.100000,-0.100000)"
fill="#000000" stroke="none">
<path d="M0 1300 l0 -1300 1300 0 1300 0 0 1300 0 1300 -1300 0 -1300 0 0
-1300z m2270 1065 c63 -33 60 20 60 -1030 0 -1050 3 -997 -60 -1030 -25 -13
-147 -15 -960 -15 -813 0 -935 2 -960 15 -63 33 -60 -20 -60 1030 0 1046 -3
997 58 1029 41 23 1879 23 1922 1z"/>
<path d="M995 1761 c-11 -5 -31 -21 -45 -36 l-25 -27 0 -339 0 -339 33 -32 32
-33 325 0 325 0 32 33 33 32 0 340 0 340 -33 32 -32 33 -313 2 c-171 1 -321
-2 -332 -6z"/>
</g>
</svg>
