<?xml version="1.0" encoding="utf-8"?>
<!-- Generator: Adobe Illustrator 21.0.2, SVG Export Plug-In . SVG Version: 6.00 Build 0)  -->
<svg version="1.1" id="Capa_1" xmlns="http://www.w3.org/2000/svg" xmlns:xlink="http://www.w3.org/1999/xlink" x="0px" y="0px"
	 viewBox="0 0 612 612" style="enable-background:new 0 0 612 612;" xml:space="preserve">
<style type="text/css">
	.st0{fill:#00DF4C;stroke:#0300D4;stroke-miterlimit:10;}
	.st1{fill:#0025F4;stroke:#0300D4;stroke-miterlimit:10;}
</style>
<g>
	<g>
		<path d="M0,612h166.9V445.1H0V612z M27.8,472.9h111.3v111.3H27.8V472.9z"/>
		<path d="M0,389.5h166.9V222.5H0V389.5z M27.8,250.4h111.3v111.3H27.8V250.4z"/>
		<path d="M166.9,0H0v166.9h166.9V0z M139.1,139.1H27.8V27.8h111.3L139.1,139.1L139.1,139.1z"/>
		<path d="M612,0H445.1v166.9H612V0z M584.2,139.1H472.9V27.8h111.3L584.2,139.1L584.2,139.1z"/>
		<path d="M445.1,389.5H612V222.5H445.1V389.5z M472.9,250.4h111.3v111.3H472.9V250.4z"/>
		<path d="M445.1,612H612V445.1H445.1V612z M472.9,472.9h111.3v111.3H472.9V472.9z"/>
		<path d="M389.5,0H222.5v166.9h166.9L389.5,0L389.5,0z M361.6,139.1H250.4V27.8h111.3V139.1z"/>
		<path d="M222.5,612h166.9V445.1H222.5V612z M250.4,472.9h111.3v111.3H250.4V472.9z"/>
		<path d="M222.5,389.5h166.9V222.5H222.5V389.5z M250.4,250.4h111.3v111.3H250.4V250.4z"/>
	</g>
</g>
<rect x="27.8" y="27.8" class="st0" width="111.3" height="111.3"/>
<rect x="249.8" y="249.8" class="st0" width="111.3" height="111.3"/>
<rect x="249.8" y="249.8" class="st0" width="111.3" height="111.3"/>
<rect x="249.8" y="249.8" class="st0" width="111.3" height="111.3"/>
<rect x="249.8" y="249.8" class="st0" width="111.3" height="111.3"/>
<rect x="472.9" y="472.9" class="st0" width="111.3" height="111.3"/>
<rect x="472.9" y="27.8" class="st0" width="111.3" height="111.3"/>
<rect x="27.8" y="472.9" class="st0" width="111.3" height="111.3"/>
<rect x="27.8" y="250.4" class="st1" width="111.3" height="111.3"/>
<rect x="249.8" y="27.8" class="st1" width="111.3" height="111.3"/>
<rect x="472.9" y="250.4" class="st1" width="111.3" height="111.3"/>
<rect x="250.4" y="471.8" class="st1" width="111.3" height="111.3"/>
</svg>
