<?xml version="1.0" encoding="utf-8"?>
<!-- Generator: Adobe Illustrator 21.0.2, SVG Export Plug-In . SVG Version: 6.00 Build 0)  -->
<svg version="1.1" id="Capa_1" xmlns="http://www.w3.org/2000/svg" xmlns:xlink="http://www.w3.org/1999/xlink" x="0px" y="0px"
	 viewBox="0 0 612 612" style="enable-background:new 0 0 612 612;" xml:space="preserve">
<style type="text/css">
	.st0{fill:#00DF4C;stroke:#0300D4;stroke-miterlimit:10;}
	.st1{fill:#0025F4;stroke:#0300D4;stroke-miterlimit:10;}
</style>
<g>
	<g>
		<path d="M28,582.6h152.1V430.5H28V582.6z M53.3,455.9h101.4v101.4H53.3V455.9z"/>
		<path d="M28,379.9h152.1V227.8H28V379.9z M53.3,253.1h101.4v101.4H53.3V253.1z"/>
		<path d="M180.1,25H28v152.1h152.1V25z M154.7,151.7H53.3V50.3h101.4L154.7,151.7L154.7,151.7z"/>
		<path d="M585.6,25H433.5v152.1h152.1V25z M560.3,151.7H458.9V50.3h101.4L560.3,151.7L560.3,151.7z"/>
		<path d="M433.5,379.9h152.1V227.8H433.5V379.9z M458.9,253.1h101.4v101.4H458.9V253.1z"/>
		<path d="M433.5,582.6h152.1V430.5H433.5V582.6z M458.9,455.9h101.4v101.4H458.9V455.9z"/>
		<path d="M382.9,25H230.8v152.1h152.1L382.9,25L382.9,25z M357.5,151.7H256.1V50.3h101.4V151.7z"/>
		<path d="M230.8,582.6h152.1V430.5H230.8V582.6z M256.1,455.9h101.4v101.4H256.1V455.9z"/>
		<path d="M230.8,379.9h152.1V227.8H230.8V379.9z M256.1,253.1h101.4v101.4H256.1V253.1z"/>
	</g>
</g>
<rect x="53.3" y="50.3" class="st0" width="101.4" height="101.4"/>
<rect x="255.6" y="252.6" class="st0" width="101.4" height="101.4"/>
<rect x="255.6" y="252.6" class="st0" width="101.4" height="101.4"/>
<rect x="255.6" y="252.6" class="st0" width="101.4" height="101.4"/>
<rect x="255.6" y="252.6" class="st0" width="101.4" height="101.4"/>
<rect x="458.9" y="455.9" class="st0" width="101.4" height="101.4"/>
<rect x="458.9" y="50.3" class="st0" width="101.4" height="101.4"/>
<rect x="53.3" y="455.9" class="st0" width="101.4" height="101.4"/>
<rect x="53.3" y="253.1" class="st1" width="101.4" height="101.4"/>
<rect x="255.6" y="50.3" class="st1" width="101.4" height="101.4"/>
<rect x="458.9" y="253.1" class="st1" width="101.4" height="101.4"/>
<rect x="256.1" y="454.9" class="st1" width="101.4" height="101.4"/>
</svg>
